<svg width="1358" height="265" viewBox="0 0 1358 265" fill="none" xmlns="http://www.w3.org/2000/svg">
<line x1="7" y1="258" x2="1351" y2="258" stroke="#E0E0E0" stroke-width="14" stroke-linecap="round"/>
<path d="M335.593 148.574C339.673 148.574 342.98 151.877 342.98 155.95C342.98 160.024 339.673 163.326 335.593 163.326H37.9916C33.9118 163.326 30.6044 160.024 30.6044 155.95C30.6044 151.877 33.9118 148.574 37.9916 148.574H335.593Z" fill="#E0E0E0"/>
<path fill-rule="evenodd" clip-rule="evenodd" d="M355.644 0C364.387 0 371.474 7.07649 371.474 15.8058V45.3099H441.125C445.205 45.3099 448.512 48.6123 448.512 52.686C448.512 56.4089 445.75 59.4853 442.16 59.9879L457.035 111.978C457.146 112.366 457.224 112.755 457.27 113.143C457.508 113.328 457.738 113.53 457.957 113.748L472.838 128.607C474.597 130.364 475.282 132.785 474.895 135.061V201.26C474.895 209.99 467.808 217.066 459.066 217.066H432.683C432.683 238.016 415.673 255 394.691 255C376.223 255 360.834 241.843 357.41 224.405C357.176 224.427 356.939 224.442 356.699 224.442H187.128C183.69 241.862 168.31 255 149.856 255C137.3 255 126.169 248.916 119.252 239.542C112.334 248.916 101.203 255 88.6472 255C69.8225 255 54.1978 241.329 51.1832 223.388H39.047C30.3044 223.388 23.2171 216.312 23.2171 207.583V194.938C23.2171 194.584 23.2333 194.233 23.2563 193.884H15.8298C7.08727 193.884 0 186.808 0 178.079V15.8058C0 7.07649 7.08727 0 15.8298 0H355.644ZM88.6472 193.884C75.8247 193.884 65.43 204.263 65.43 217.066C65.43 229.869 75.8247 240.248 88.6472 240.248C101.47 240.248 111.864 229.869 111.864 217.066C111.864 204.263 101.47 193.884 88.6472 193.884ZM149.856 193.884C137.033 193.884 126.639 204.263 126.639 217.066C126.639 229.869 137.033 240.248 149.856 240.248C162.678 240.248 173.073 229.869 173.073 217.066C173.073 204.263 162.678 193.884 149.856 193.884ZM394.691 193.884C381.868 193.884 371.474 204.263 371.474 217.066C371.474 229.869 381.868 240.248 394.691 240.248C407.513 240.248 417.908 229.869 417.908 217.066C417.908 204.263 407.513 193.884 394.691 193.884ZM179.928 193.884C183.458 198.442 185.97 203.823 187.128 209.69H356.699C356.939 209.69 357.176 209.703 357.41 209.725C358.565 203.844 361.082 198.451 364.618 193.884H179.928ZM39.047 193.884C38.4641 193.884 37.9916 194.356 37.9916 194.938V207.583C37.9916 208.165 38.4641 208.636 39.047 208.636H51.5975C52.8379 203.178 55.2578 198.168 58.5746 193.884H39.047ZM371.474 178.079C371.474 178.433 371.458 178.784 371.435 179.132H393.636V179.147C393.986 179.137 394.338 179.132 394.691 179.132C410.433 179.132 423.94 188.692 429.704 202.314H459.066C459.648 202.314 460.121 201.842 460.121 201.26V169.649H455.9C451.82 169.649 448.512 166.346 448.512 162.273C448.512 158.199 451.82 154.897 455.9 154.897H460.121V136.771L458.128 134.781C457.746 134.842 457.354 134.876 456.955 134.876H404.189C395.446 134.876 388.359 127.8 388.359 119.07V89.5661C388.359 80.8368 395.446 73.7603 404.189 73.7603H430.735L426.814 60.062H371.474V178.079ZM15.8298 14.7521C15.247 14.7521 14.7745 15.2238 14.7745 15.8058V178.079C14.7745 178.66 15.247 179.132 15.8298 179.132H355.644C356.227 179.132 356.699 178.66 356.699 178.079V15.8058C356.699 15.2238 356.227 14.7521 355.644 14.7521H15.8298ZM404.189 88.5124C403.606 88.5124 403.133 88.9842 403.133 89.5661V119.07C403.133 119.652 403.606 120.124 404.189 120.124H445.439C445.423 120.024 445.41 119.924 445.398 119.823C444.202 118.896 443.278 117.596 442.83 116.031L434.956 88.5124H404.189Z" fill="#E0E0E0"/>
</svg>
